<mxfile host="app.diagrams.net" agent="Mozilla/5.0 (X11; Ubuntu; Linux x86_64; rv:132.0) Gecko/20100101 Firefox/132.0" version="26.0.9">
  <diagram name="Pagina-1" id="LR0UjAF7tA19vhJ0bIsz">
    <mxGraphModel dx="1114" dy="567" grid="1" gridSize="10" guides="1" tooltips="1" connect="1" arrows="1" fold="1" page="1" pageScale="1" pageWidth="827" pageHeight="1169" math="0" shadow="0">
      <root>
        <mxCell id="0" />
        <mxCell id="1" parent="0" />
        <mxCell id="EuqI8HqZht43Ids4FkUO-3" style="edgeStyle=orthogonalEdgeStyle;rounded=0;orthogonalLoop=1;jettySize=auto;html=1;entryX=0.5;entryY=0;entryDx=0;entryDy=0;" parent="1" source="EuqI8HqZht43Ids4FkUO-1" target="EuqI8HqZht43Ids4FkUO-2" edge="1">
          <mxGeometry relative="1" as="geometry" />
        </mxCell>
        <mxCell id="EuqI8HqZht43Ids4FkUO-1" value="START" style="ellipse;whiteSpace=wrap;html=1;" parent="1" vertex="1">
          <mxGeometry x="360" y="40" width="120" height="80" as="geometry" />
        </mxCell>
        <mxCell id="EuqI8HqZht43Ids4FkUO-5" style="edgeStyle=orthogonalEdgeStyle;rounded=0;orthogonalLoop=1;jettySize=auto;html=1;entryX=0.5;entryY=0;entryDx=0;entryDy=0;" parent="1" source="EuqI8HqZht43Ids4FkUO-2" target="EuqI8HqZht43Ids4FkUO-4" edge="1">
          <mxGeometry relative="1" as="geometry" />
        </mxCell>
        <mxCell id="EuqI8HqZht43Ids4FkUO-2" value="Read n" style="shape=parallelogram;perimeter=parallelogramPerimeter;whiteSpace=wrap;html=1;fixedSize=1;" parent="1" vertex="1">
          <mxGeometry x="360" y="160" width="120" height="60" as="geometry" />
        </mxCell>
        <mxCell id="EuqI8HqZht43Ids4FkUO-8" style="edgeStyle=orthogonalEdgeStyle;rounded=0;orthogonalLoop=1;jettySize=auto;html=1;entryX=0;entryY=0.5;entryDx=0;entryDy=0;" parent="1" source="EuqI8HqZht43Ids4FkUO-4" target="EuqI8HqZht43Ids4FkUO-6" edge="1">
          <mxGeometry relative="1" as="geometry" />
        </mxCell>
        <mxCell id="EuqI8HqZht43Ids4FkUO-32" value="FALSE" style="edgeLabel;html=1;align=center;verticalAlign=middle;resizable=0;points=[];" parent="EuqI8HqZht43Ids4FkUO-8" vertex="1" connectable="0">
          <mxGeometry x="-0.2" y="2" relative="1" as="geometry">
            <mxPoint y="2" as="offset" />
          </mxGeometry>
        </mxCell>
        <mxCell id="EuqI8HqZht43Ids4FkUO-10" style="edgeStyle=orthogonalEdgeStyle;rounded=0;orthogonalLoop=1;jettySize=auto;html=1;entryX=0.5;entryY=0;entryDx=0;entryDy=0;" parent="1" source="EuqI8HqZht43Ids4FkUO-4" target="EuqI8HqZht43Ids4FkUO-9" edge="1">
          <mxGeometry relative="1" as="geometry" />
        </mxCell>
        <mxCell id="EuqI8HqZht43Ids4FkUO-33" value="TRUE" style="edgeLabel;html=1;align=center;verticalAlign=middle;resizable=0;points=[];" parent="EuqI8HqZht43Ids4FkUO-10" vertex="1" connectable="0">
          <mxGeometry x="-0.2" y="-3" relative="1" as="geometry">
            <mxPoint x="3" as="offset" />
          </mxGeometry>
        </mxCell>
        <mxCell id="EuqI8HqZht43Ids4FkUO-4" value="n &amp;gt; 0 AND&lt;br&gt;n % 1 == 0" style="rhombus;whiteSpace=wrap;html=1;" parent="1" vertex="1">
          <mxGeometry x="360" y="260" width="120" height="80" as="geometry" />
        </mxCell>
        <mxCell id="gquzwBAH-Wm9JcUGMkbb-11" style="edgeStyle=orthogonalEdgeStyle;rounded=0;orthogonalLoop=1;jettySize=auto;html=1;entryX=0.5;entryY=0;entryDx=0;entryDy=0;" edge="1" parent="1" source="EuqI8HqZht43Ids4FkUO-6" target="gquzwBAH-Wm9JcUGMkbb-10">
          <mxGeometry relative="1" as="geometry" />
        </mxCell>
        <mxCell id="EuqI8HqZht43Ids4FkUO-6" value="Write &quot;NOOOO&quot;" style="shape=parallelogram;perimeter=parallelogramPerimeter;whiteSpace=wrap;html=1;fixedSize=1;" parent="1" vertex="1">
          <mxGeometry x="540" y="270" width="120" height="60" as="geometry" />
        </mxCell>
        <mxCell id="EuqI8HqZht43Ids4FkUO-14" style="edgeStyle=orthogonalEdgeStyle;rounded=0;orthogonalLoop=1;jettySize=auto;html=1;entryX=0.5;entryY=0;entryDx=0;entryDy=0;" parent="1" source="EuqI8HqZht43Ids4FkUO-9" target="EuqI8HqZht43Ids4FkUO-13" edge="1">
          <mxGeometry relative="1" as="geometry" />
        </mxCell>
        <mxCell id="EuqI8HqZht43Ids4FkUO-9" value="i = 0" style="rounded=0;whiteSpace=wrap;html=1;" parent="1" vertex="1">
          <mxGeometry x="360" y="380" width="120" height="60" as="geometry" />
        </mxCell>
        <mxCell id="EuqI8HqZht43Ids4FkUO-16" style="edgeStyle=orthogonalEdgeStyle;rounded=0;orthogonalLoop=1;jettySize=auto;html=1;" parent="1" source="EuqI8HqZht43Ids4FkUO-11" edge="1">
          <mxGeometry relative="1" as="geometry">
            <mxPoint x="420" y="730" as="targetPoint" />
          </mxGeometry>
        </mxCell>
        <mxCell id="EuqI8HqZht43Ids4FkUO-17" value="TRUE" style="edgeLabel;html=1;align=center;verticalAlign=middle;resizable=0;points=[];" parent="EuqI8HqZht43Ids4FkUO-16" vertex="1" connectable="0">
          <mxGeometry x="-0.2728" y="3" relative="1" as="geometry">
            <mxPoint x="-3" as="offset" />
          </mxGeometry>
        </mxCell>
        <mxCell id="EuqI8HqZht43Ids4FkUO-34" style="edgeStyle=orthogonalEdgeStyle;rounded=0;orthogonalLoop=1;jettySize=auto;html=1;entryX=0;entryY=0.5;entryDx=0;entryDy=0;" parent="1" source="EuqI8HqZht43Ids4FkUO-11" target="EuqI8HqZht43Ids4FkUO-31" edge="1">
          <mxGeometry relative="1" as="geometry" />
        </mxCell>
        <mxCell id="EuqI8HqZht43Ids4FkUO-35" value="FALSE" style="edgeLabel;html=1;align=center;verticalAlign=middle;resizable=0;points=[];" parent="EuqI8HqZht43Ids4FkUO-34" vertex="1" connectable="0">
          <mxGeometry x="-0.4" y="-1" relative="1" as="geometry">
            <mxPoint x="9" y="-1" as="offset" />
          </mxGeometry>
        </mxCell>
        <mxCell id="EuqI8HqZht43Ids4FkUO-11" value="i &amp;lt; 10" style="rhombus;whiteSpace=wrap;html=1;" parent="1" vertex="1">
          <mxGeometry x="360" y="580" width="120" height="80" as="geometry" />
        </mxCell>
        <mxCell id="EuqI8HqZht43Ids4FkUO-15" style="edgeStyle=orthogonalEdgeStyle;rounded=0;orthogonalLoop=1;jettySize=auto;html=1;" parent="1" source="EuqI8HqZht43Ids4FkUO-13" target="EuqI8HqZht43Ids4FkUO-11" edge="1">
          <mxGeometry relative="1" as="geometry" />
        </mxCell>
        <mxCell id="EuqI8HqZht43Ids4FkUO-13" value="c = 0" style="rounded=0;whiteSpace=wrap;html=1;" parent="1" vertex="1">
          <mxGeometry x="360" y="480" width="120" height="60" as="geometry" />
        </mxCell>
        <mxCell id="gquzwBAH-Wm9JcUGMkbb-3" style="edgeStyle=orthogonalEdgeStyle;rounded=0;orthogonalLoop=1;jettySize=auto;html=1;entryX=0.5;entryY=0;entryDx=0;entryDy=0;" edge="1" parent="1" source="EuqI8HqZht43Ids4FkUO-19" target="gquzwBAH-Wm9JcUGMkbb-1">
          <mxGeometry relative="1" as="geometry" />
        </mxCell>
        <mxCell id="EuqI8HqZht43Ids4FkUO-19" value="Read n_div" style="shape=parallelogram;perimeter=parallelogramPerimeter;whiteSpace=wrap;html=1;fixedSize=1;" parent="1" vertex="1">
          <mxGeometry x="360" y="730" width="120" height="60" as="geometry" />
        </mxCell>
        <mxCell id="EuqI8HqZht43Ids4FkUO-22" style="edgeStyle=orthogonalEdgeStyle;rounded=0;orthogonalLoop=1;jettySize=auto;html=1;" parent="1" source="EuqI8HqZht43Ids4FkUO-20" edge="1">
          <mxGeometry relative="1" as="geometry">
            <mxPoint x="420" y="1190" as="targetPoint" />
          </mxGeometry>
        </mxCell>
        <mxCell id="EuqI8HqZht43Ids4FkUO-23" value="TRUE" style="edgeLabel;html=1;align=center;verticalAlign=middle;resizable=0;points=[];" parent="EuqI8HqZht43Ids4FkUO-22" vertex="1" connectable="0">
          <mxGeometry x="-0.2728" y="2" relative="1" as="geometry">
            <mxPoint x="-2" as="offset" />
          </mxGeometry>
        </mxCell>
        <mxCell id="EuqI8HqZht43Ids4FkUO-27" style="edgeStyle=orthogonalEdgeStyle;rounded=0;orthogonalLoop=1;jettySize=auto;html=1;entryX=1;entryY=0.5;entryDx=0;entryDy=0;" parent="1" source="EuqI8HqZht43Ids4FkUO-20" target="EuqI8HqZht43Ids4FkUO-26" edge="1">
          <mxGeometry relative="1" as="geometry" />
        </mxCell>
        <mxCell id="EuqI8HqZht43Ids4FkUO-28" value="FALSE" style="edgeLabel;html=1;align=center;verticalAlign=middle;resizable=0;points=[];" parent="EuqI8HqZht43Ids4FkUO-27" vertex="1" connectable="0">
          <mxGeometry x="0.0154" y="-1" relative="1" as="geometry">
            <mxPoint x="3" y="1" as="offset" />
          </mxGeometry>
        </mxCell>
        <mxCell id="EuqI8HqZht43Ids4FkUO-20" value="n_div % n == 0" style="rhombus;whiteSpace=wrap;html=1;" parent="1" vertex="1">
          <mxGeometry x="360" y="1050" width="120" height="80" as="geometry" />
        </mxCell>
        <mxCell id="EuqI8HqZht43Ids4FkUO-29" style="edgeStyle=orthogonalEdgeStyle;rounded=0;orthogonalLoop=1;jettySize=auto;html=1;entryX=0.5;entryY=1;entryDx=0;entryDy=0;" parent="1" source="EuqI8HqZht43Ids4FkUO-24" target="EuqI8HqZht43Ids4FkUO-26" edge="1">
          <mxGeometry relative="1" as="geometry" />
        </mxCell>
        <mxCell id="EuqI8HqZht43Ids4FkUO-24" value="c++" style="rounded=0;whiteSpace=wrap;html=1;" parent="1" vertex="1">
          <mxGeometry x="360" y="1190" width="120" height="60" as="geometry" />
        </mxCell>
        <mxCell id="gquzwBAH-Wm9JcUGMkbb-8" style="edgeStyle=orthogonalEdgeStyle;rounded=0;orthogonalLoop=1;jettySize=auto;html=1;entryX=0.5;entryY=1;entryDx=0;entryDy=0;" edge="1" parent="1" source="EuqI8HqZht43Ids4FkUO-26" target="gquzwBAH-Wm9JcUGMkbb-5">
          <mxGeometry relative="1" as="geometry" />
        </mxCell>
        <mxCell id="EuqI8HqZht43Ids4FkUO-26" value="" style="ellipse;whiteSpace=wrap;html=1;aspect=fixed;" parent="1" vertex="1">
          <mxGeometry x="270" y="1077.5" width="25" height="25" as="geometry" />
        </mxCell>
        <mxCell id="EuqI8HqZht43Ids4FkUO-40" style="edgeStyle=orthogonalEdgeStyle;rounded=0;orthogonalLoop=1;jettySize=auto;html=1;entryX=0;entryY=0.5;entryDx=0;entryDy=0;" parent="1" source="EuqI8HqZht43Ids4FkUO-31" edge="1">
          <mxGeometry relative="1" as="geometry">
            <mxPoint x="700" y="620" as="targetPoint" />
          </mxGeometry>
        </mxCell>
        <mxCell id="EuqI8HqZht43Ids4FkUO-31" value="Write c" style="shape=parallelogram;perimeter=parallelogramPerimeter;whiteSpace=wrap;html=1;fixedSize=1;" parent="1" vertex="1">
          <mxGeometry x="540" y="590" width="120" height="60" as="geometry" />
        </mxCell>
        <mxCell id="gquzwBAH-Wm9JcUGMkbb-6" style="edgeStyle=orthogonalEdgeStyle;rounded=0;orthogonalLoop=1;jettySize=auto;html=1;entryX=1;entryY=0.5;entryDx=0;entryDy=0;" edge="1" parent="1" source="gquzwBAH-Wm9JcUGMkbb-1" target="gquzwBAH-Wm9JcUGMkbb-5">
          <mxGeometry relative="1" as="geometry" />
        </mxCell>
        <mxCell id="gquzwBAH-Wm9JcUGMkbb-7" value="FALSE" style="edgeLabel;html=1;align=center;verticalAlign=middle;resizable=0;points=[];" vertex="1" connectable="0" parent="gquzwBAH-Wm9JcUGMkbb-6">
          <mxGeometry x="-0.1385" y="3" relative="1" as="geometry">
            <mxPoint x="-2" y="-3" as="offset" />
          </mxGeometry>
        </mxCell>
        <mxCell id="gquzwBAH-Wm9JcUGMkbb-15" style="edgeStyle=orthogonalEdgeStyle;rounded=0;orthogonalLoop=1;jettySize=auto;html=1;" edge="1" parent="1" source="gquzwBAH-Wm9JcUGMkbb-1" target="gquzwBAH-Wm9JcUGMkbb-14">
          <mxGeometry relative="1" as="geometry" />
        </mxCell>
        <mxCell id="gquzwBAH-Wm9JcUGMkbb-1" value="n_div % 1 == 0" style="rhombus;whiteSpace=wrap;html=1;" vertex="1" parent="1">
          <mxGeometry x="360" y="830" width="120" height="80" as="geometry" />
        </mxCell>
        <mxCell id="gquzwBAH-Wm9JcUGMkbb-9" style="edgeStyle=orthogonalEdgeStyle;rounded=0;orthogonalLoop=1;jettySize=auto;html=1;entryX=0;entryY=0.5;entryDx=0;entryDy=0;" edge="1" parent="1" source="gquzwBAH-Wm9JcUGMkbb-5" target="EuqI8HqZht43Ids4FkUO-11">
          <mxGeometry relative="1" as="geometry">
            <Array as="points">
              <mxPoint x="283" y="620" />
            </Array>
          </mxGeometry>
        </mxCell>
        <mxCell id="gquzwBAH-Wm9JcUGMkbb-5" value="" style="ellipse;whiteSpace=wrap;html=1;aspect=fixed;" vertex="1" parent="1">
          <mxGeometry x="270" y="857.5" width="25" height="25" as="geometry" />
        </mxCell>
        <mxCell id="gquzwBAH-Wm9JcUGMkbb-13" style="edgeStyle=orthogonalEdgeStyle;rounded=0;orthogonalLoop=1;jettySize=auto;html=1;" edge="1" parent="1" source="gquzwBAH-Wm9JcUGMkbb-10" target="gquzwBAH-Wm9JcUGMkbb-12">
          <mxGeometry relative="1" as="geometry" />
        </mxCell>
        <mxCell id="gquzwBAH-Wm9JcUGMkbb-10" value="" style="ellipse;whiteSpace=wrap;html=1;aspect=fixed;" vertex="1" parent="1">
          <mxGeometry x="700" y="605" width="30" height="30" as="geometry" />
        </mxCell>
        <mxCell id="gquzwBAH-Wm9JcUGMkbb-12" value="END" style="ellipse;whiteSpace=wrap;html=1;" vertex="1" parent="1">
          <mxGeometry x="655" y="710" width="120" height="80" as="geometry" />
        </mxCell>
        <mxCell id="gquzwBAH-Wm9JcUGMkbb-16" style="edgeStyle=orthogonalEdgeStyle;rounded=0;orthogonalLoop=1;jettySize=auto;html=1;entryX=0.5;entryY=0;entryDx=0;entryDy=0;" edge="1" parent="1" source="gquzwBAH-Wm9JcUGMkbb-14" target="EuqI8HqZht43Ids4FkUO-20">
          <mxGeometry relative="1" as="geometry" />
        </mxCell>
        <mxCell id="gquzwBAH-Wm9JcUGMkbb-14" value="i += 1" style="rounded=0;whiteSpace=wrap;html=1;" vertex="1" parent="1">
          <mxGeometry x="360" y="960" width="120" height="60" as="geometry" />
        </mxCell>
      </root>
    </mxGraphModel>
  </diagram>
</mxfile>
